# xmcd
#
# Track frame offsets: 
#        150
#        24906
#        51237
#        74024
#        97358
#        118061
#        137400
#        150255
#        171291
#        189809
#        201544
#        219906
#        238209
#        253629
#        283435
#        295007
#        311833
#        330856
#
# Disc length: 4652 seconds
#
# Revision: 0
# Processed by: cddbd v1.5.2PL0 Copyright (c) Steve Scherf et al.
# Submitted via: ExactAudioCopy v1.1
#
DISCID=12122a12
DTITLE=Various Artist - De Lage Landenlijst 2 - CD 1
DYEAR=2017
DGENRE=Chanson
TTITLE0=Gorki - Mia
TTITLE1=Wim De Craene - Tim
TTITLE2=Ramses Shaffy - Laat Me
TTITLE3=Drs. P - Dodenrit
TTITLE4=Raymond Van Het Groenewoud - J'Veux De L'Amour
TTITLE5=Maggie MacNeal - Terug Naar De Kust
TTITLE6=Frans Halsema - Voor Haar
TTITLE7=Jan De Wilde - Eerste Sneeuw
TTITLE8=Monza - Van God Los
TTITLE9=Louis Neefs - Laat Ons Een Bloem
TTITLE10=Yentl En De Boer - Ik Heb Een Man Gekend
TTITLE11=Skik - Op Fietse
TTITLE12=Danny De Munk - Ik Voel Me Zo Verdomd Alleen
TTITLE13=Maarten Van Roozendaal - Mooi
TTITLE14=Wim Sonneveld - Aan De Amsterdamse Grachten
TTITLE15=Fixkes - Kvraagetaan
TTITLE16=Extince - Spraakwater
TTITLE17=Lieven - Neerhof
EXTD=
EXTT0=
EXTT1=
EXTT2=
EXTT3=
EXTT4=
EXTT5=
EXTT6=
EXTT7=
EXTT8=
EXTT9=
EXTT10=
EXTT11=
EXTT12=
EXTT13=
EXTT14=
EXTT15=
EXTT16=
EXTT17=
PLAYORDER=
